# xmcd
#
# Track frame offsets: 
#        150
#        27908
#        47300
#        64883
#        88893
#        110873
#        142652
#        166260
#        195532
#        240792
#
# Disc length: 3536 seconds
#
# Revision: 0
# Processed by: cddbd v1.5.2PL0 Copyright (c) Steve Scherf et al.
# Submitted via: ExactAudioCopy v1.0b3
#
DISCID=790dce0a
DTITLE=Elvis Phuong - Giot Nang Ben Them
DYEAR=1996
DGENRE=
TTITLE0=Elvis Phuong, Ha Phuong - Tat nuoc dau dinh
TTITLE1=Thuong nhau ngay mua
TTITLE2=Giay mau thien thanh
TTITLE3=Elvis Phuong, Ha Phuong - Nang len xom ngheo
TTITLE4=Giot nang ben them
TTITLE5=Tinh oi vinh biet
TTITLE6=Tinh ca muon thuo
TTITLE7=Yeu nguoi yeu doi
TTITLE8=LK nhac Phap
TTITLE9=Elvis Phuong, Hong Van - Qua cau gio bay
EXTD=
EXTT0=
EXTT1=
EXTT2=
EXTT3=
EXTT4=
EXTT5=
EXTT6=
EXTT7=
EXTT8=
EXTT9=
PLAYORDER=
